<svg xmlns="http://www.w3.org/2000/svg" xml:space="preserve" width="381.776" height="381.77866" viewBox="0 0 381.77599 381.77866"><g transform="matrix(1.33333 0 0 -1.33333 -349.507 676.596)"><ellipse cx="405.61203" cy="-363.98892" rx="141.45651" ry="141.68904" style="fill:#fff;stroke-width:.375" transform="scale(1 -1)"/><path d="M0 0c0-77.688-62.978-140.667-140.666-140.667S-281.332-77.688-281.332 0s62.978 140.667 140.666 140.667S0 77.688 0 0Z" style="fill:none;stroke:#181c62;stroke-width:5;stroke-linecap:butt;stroke-linejoin:miter;stroke-miterlimit:10;stroke-dasharray:none;stroke-opacity:1" transform="translate(545.962 364.28)"/><path d="M0 0c-52.099 0-94.333 42.235-94.333 94.333 0 52.1 42.234 94.334 94.333 94.334 52.1 0 94.333-42.234 94.333-94.334C94.333 42.235 52.1 0 0 0m0 228.333c-74.006 0-134-59.993-134-134C-134 20.328-74.006-39.666 0-39.666c74.007 0 133.999 59.994 133.999 133.999 0 74.007-59.992 134-133.999 134" style="fill:#181c62;fill-opacity:1;fill-rule:nonzero;stroke:none" transform="translate(405.296 269.946)"/><path d="M0 0a9.6 9.6 0 0 0 .664-3.518 8.2 8.2 0 0 0-.713-3.336Q-.736-8.397-2.132-9.67q-1.397-1.274-3.367-2.031-1.957-.752-3.874-.746a9.3 9.3 0 0 0-3.588.708 8.5 8.5 0 0 0-2.917 2.044 9.65 9.65 0 0 0-1.983 3.192q-.51 1.328-.586 2.552t.06 2.142l-.92.448-.376.979 6.099 2.461.381-.991q-2.49-1.924-3.355-3.612-.864-1.687-.212-3.385.813-2.114 3.201-2.461 2.387-.346 5.936 1.017 2.005.771 3.279 1.693t1.907 1.862q.651.999.732 2.049a4.85 4.85 0 0 1-.336 2.13q-.605 1.574-1.979 2.46-1.373.885-3.588 1.196l.244 1.204q1.23-.083 2.291-.386a7.3 7.3 0 0 0 1.966-.885 7.8 7.8 0 0 0 1.774-1.573Q-.563 1.464 0 0" style="fill:#fff;fill-opacity:1;fill-rule:nonzero;stroke:none" transform="translate(307.926 327.906)"/><path d="m0 0 1.911-9.051-.969-.204-.256.845q-.17.557-.313.747-.279.398-.619.499t-.811.001l-6.074-1.283 1.51-7.151 5.938 1.254q.423.09.722.331t.398.695q.052.245.049.811a8 8 0 0 1-.05.914l.969.205 1.911-9.051-.969-.205q-.075.292-.264.851t-.343.796q-.252.39-.615.486a1.75 1.75 0 0 1-.812.002l-12.471-2.634a1.7 1.7 0 0 1-.701-.302q-.268-.21-.394-.718a4.7 4.7 0 0 1-.102-.959 7 7 0 0 1 .014-.835l-.969-.204-1.911 9.051.969.204a7 7 0 0 1 .308-.847q.207-.486.351-.739.259-.427.644-.499t.782.011l5.267 1.112-1.51 7.151-5.143-1.086a1.6 1.6 0 0 1-.7-.308q-.266-.216-.392-.724a4.5 4.5 0 0 1-.106-.879 7 7 0 0 1 .005-.855l-.969-.205-1.911 9.051.969.204q.105-.372.285-.827t.384-.806q.256-.415.636-.495.382-.08.79.007l12.484 2.636q.447.095.725.314t.395.711q.065.31.05.868a8 8 0 0 1-.061.905z" style="fill:#fff;fill-opacity:1;fill-rule:nonzero;stroke:none" transform="translate(300.989 352.815)"/><path d="M0 0q.051-.348.209-1t.504-1.085q.335-.447 1.166-.602.833-.156 2.481-.094l6.699.252q2.955.111 4.829-1.725t1.991-4.97q.137-3.653-1.526-5.718-1.662-2.066-4.77-2.183l-9.211-.346a1.64 1.64 0 0 1-.755-.192q-.31-.174-.548-.642a3 3 0 0 1-.237-.781 9 9 0 0 1-.111-.752l-.965-.037-.337 8.967.964.036q.04-.384.125-.78.085-.395.24-.799.17-.453.53-.596.362-.144.805-.126l9.084.341q2.676.1 3.853 1.266 1.175 1.164 1.095 3.295-.08 2.095-1.468 3.235-1.39 1.142-4.003 1.043l-6.102-.229q-1.624-.062-2.422-.302-.798-.242-1.137-.689-.266-.324-.466-1.11T.279-7.424l-.989-.037-.28 7.424z" style="fill:#fff;fill-opacity:1;fill-rule:nonzero;stroke:none" transform="translate(283.57 369.883)"/><path d="M0 0q-.003-.34.02-.975A2.45 2.45 0 0 1 .373-2.16q.284-.486 1.087-.773t2.402-.485l12.776-1.581-.263-2.13L1.244-16l8.391-1.039q1.563-.193 2.4-.096t1.27.493q.316.29.618.969.302.68.429 1.089l.983-.122-.903-7.301-.983.122q.02.47-.05 1.093a2.8 2.8 0 0 1-.322 1.067q-.308.512-1.024.777t-2.454.48l-8.467 1.047q-.63.078-1.213-.038a2.5 2.5 0 0 1-1.036-.461 3.2 3.2 0 0 1-.793-.88 5.8 5.8 0 0 1-.538-1.192l-1.008.125.791 6.393 13.239 7.791-6.762.837q-1.612.2-2.424.093-.813-.106-1.245-.502-.333-.312-.625-.968a10 10 0 0 1-.42-1.066l-.982.122.901 7.289z" style="fill:#fff;fill-opacity:1;fill-rule:nonzero;stroke:none" transform="translate(286.036 389.372)"/><path d="M0 0a9 9 0 0 1-.1-.662 4.6 4.6 0 0 1-.007-.751q.02-.522.342-.778a2.1 2.1 0 0 1 .724-.374l2.011-.586a37 37 0 0 1 1.915-.507q.394-1.37.381-3.823T4.7-11.832a10 10 0 0 0-1.548-3.18 8 8 0 0 0-2.518-2.243q-1.478-.85-3.359-1.038-1.88-.187-4.051.444-2.025.59-3.56 1.727-1.534 1.138-2.428 2.705-.886 1.54-1.065 3.431-.177 1.892.424 3.953a9.2 9.2 0 0 0 1.12 2.488q.714 1.086 1.354 1.741l-.462.913.294 1.008 6.344-1.735-.297-1.019q-3.102-.05-4.84-.877-1.738-.825-2.284-2.701-.646-2.223 1.05-4.03t5.295-2.855q3.819-1.111 6.324-.553t3.138 2.736q.297 1.018.204 1.906-.091.887-.39 1.451l-3.51 1.022q-.44.128-.782.064-.342-.063-.693-.451a4 4 0 0 1-.533-.787q-.262-.489-.412-.822l-.951.277L-.951.277z" style="fill:#fff;fill-opacity:1;fill-rule:nonzero;stroke:none" transform="translate(300.784 405.1)"/><path d="M0 0q-.11-.321-.289-.931a2.5 2.5 0 0 1-.04-1.236q.119-.552.789-1.077.67-.526 2.126-1.218l11.625-5.531-.922-1.939-17.157-3.644 7.635-3.632q1.422-.677 2.247-.849.824-.171 1.36.067.393.174.893.724t.751.899l.894-.426-3.161-6.643-.894.425q.168.44.297 1.054.13.613.032 1.114-.131.583-.727 1.06t-2.177 1.229l-7.704 3.666q-.573.272-1.163.346a2.5 2.5 0 0 1-1.129-.111 3.2 3.2 0 0 1-1.03-.585 5.7 5.7 0 0 1-.886-.961l-.917.437 2.767 5.817L8.241-8.729 2.088-5.801q-1.467.697-2.271.853-.804.155-1.34-.084-.414-.19-.898-.721a10 10 0 0 1-.735-.879l-.894.425L-.895.425z" style="fill:#fff;fill-opacity:1;fill-rule:nonzero;stroke:none" transform="translate(299.946 425.55)"/><path d="m0 0-6.776 1.621 4.006-5.684Zm11.086 3.327L5.835-4.376l-.818.557q.324.565.657 1.402.332.838.091 1.002a2 2 0 0 1-.199.114 1.8 1.8 0 0 1-.341.108l-3.907.896-3.327-4.882q.315-.462.753-1.058.439-.597.789-1.053.459-.589.697-.802.239-.214.344-.285.335-.23.901.093.566.322 1.437 1.376l.817-.558-3.953-5.8-.818.558q.204.343.396.817t.198.821q.027.58-.146 1.114a4 4 0 0 1-.549 1.067l-4.326 6.343a6290 6290 0 0 0-4.776 7.014l1.359 1.992q6.388-1.492 10.078-2.388a285 285 0 0 1 6.152-1.435 3 3 0 0 1 .796-.06q.393.024.875.235.357.165.693.476.335.312.56.597z" style="fill:#fff;fill-opacity:1;fill-rule:nonzero;stroke:none" transform="translate(313.54 427.998)"/><path d="m0 0-6.472-6.643-.709.691q.258.32.612.81.353.49.431.716.175.452.074.821-.103.367-.466.723l-9.639 9.39 7.232-15.262-1.06-1.089q-.376.215-1.566.776t-1.912.894l-11.887 5.537 7.848-7.646q1.127-1.098 1.853-1.527.725-.429 1.309-.375.402.029 1.117.418.716.39.962.587l.709-.691-5.134-5.269-.709.691q.183.242.563.823.381.582.447 1.123.082.594-.405 1.304t-1.605 1.8L-24.8-5.17q-.582.567-1.103.805a1.93 1.93 0 0 1-1.018.183q-.619-.07-1.054-.354a7 7 0 0 1-.824-.628l-.709.691 5.503 5.648 11.445-5.26-4.419 9.268q-.256.502-.666 1.137t-.565.804l5.29 5.43.709-.691a7 7 0 0 1-.491-.65 6 6 0 0 1-.419-.72q-.21-.453-.06-.808.15-.357.459-.658L-3.583.124q.327-.32.655-.428.327-.11.82.068.249.093.705.415t.694.512z" style="fill:#fff;fill-opacity:1;fill-rule:nonzero;stroke:none" transform="translate(338.69 445.54)"/><path d="M0 0a10 10 0 0 0-2.706-1.186q-1.37-.362-2.464-.38l-.242-1.194-.872-.538-3.555 5.459.882.545a17 17 0 0 1 1.79-1.199 9.5 9.5 0 0 1 2.036-.91A6.5 6.5 0 0 1-3.002.282Q-1.946.305-.91.945q1.396.862 1.696 2.04t-.374 2.27q-.555.899-1.562 1.119-1.009.22-2.607-.151-1.044-.24-1.921-.437a30 30 0 0 0-1.675-.329q-1.847-.29-3.269.416-1.42.706-2.295 2.123a4.9 4.9 0 0 0-.696 1.953 5.4 5.4 0 0 0 .159 2.153q.297 1.034 1.113 2.076a7.8 7.8 0 0 0 2.059 1.809 8.3 8.3 0 0 0 2.488 1.044q1.277.296 2.102.313l.226 1.035.893.551 3.31-5.178-.883-.544a24 24 0 0 1-1.789 1.28q-.961.626-1.784.926a4.8 4.8 0 0 1-1.778.285q-.886-.032-1.77-.577-1.107-.684-1.403-1.778a2.53 2.53 0 0 1 .306-2.068q.567-.92 1.539-1.127.97-.207 2.538.147.926.199 1.884.416.956.218 1.726.35 1.862.312 3.295-.275 1.432-.586 2.407-2.166.615-.995.748-2.198a5.2 5.2 0 0 0-.235-2.281A7 7 0 0 0 2.287 1.92Q1.437.887 0 0" style="fill:#fff;fill-opacity:1;fill-rule:nonzero;stroke:none" transform="translate(350.792 452.78)"/><path d="M0 0a9.6 9.6 0 0 0-3.484-.821 8.2 8.2 0 0 0-3.365.564q-1.572.616-2.907 1.956-1.335 1.338-2.179 3.272-.838 1.922-.918 3.837a9.3 9.3 0 0 0 .547 3.616 8.5 8.5 0 0 0 1.912 3.005 9.7 9.7 0 0 0 3.1 2.124q1.304.57 2.523.699 1.22.131 2.144.036l.405.939.962.419 2.731-5.983-.973-.424q-2.034 2.401-3.759 3.19-1.724.788-3.391.06-2.075-.906-2.315-3.307t1.281-5.885q.86-1.97 1.837-3.201.979-1.231 1.946-1.821 1.027-.606 2.08-.639a4.85 4.85 0 0 1 2.113.43q1.545.675 2.368 2.086.823 1.412 1.034 3.638l1.215-.19a11 11 0 0 0-.283-2.305 7.3 7.3 0 0 0-.797-2.003 7.8 7.8 0 0 0-1.492-1.843Q1.437.627 0 0" style="fill:#fff;fill-opacity:1;fill-rule:nonzero;stroke:none" transform="translate(364.67 459.972)"/><path d="m0 0-9.088-2.738-.286.948q.306.118.896.35.592.23.794.398.372.31.438.655t-.073.807l-3.684 12.228a1.75 1.75 0 0 1-.37.685q-.245.27-.743.333a5.3 5.3 0 0 1-.895.002 10 10 0 0 1-.988-.105l-.286.947 9.088 2.739.286-.949a35 35 0 0 1-.835-.364 5 5 0 0 1-.821-.453q-.402-.293-.452-.673a1.9 1.9 0 0 1 .079-.805l3.68-12.216a1.7 1.7 0 0 1 .382-.701q.25-.263.746-.325.276-.037.867.029a9 9 0 0 1 .979.156z" style="fill:#fff;fill-opacity:1;fill-rule:nonzero;stroke:none" transform="translate(379.7 465.66)"/><path d="m0 0-.903-.158q-.521.949-1.546 1.835-1.024.888-1.888.928-.372.025-1.011-.067a41 41 0 0 1-1.054-.165l-2.448-.429 1.197-6.84 1.735.303q.653.114 1.159.371.507.255.865.796.222.335.375 1.109.152.774.142 1.327l.902.157 1.296-7.402-.903-.159q-.164.513-.593 1.256-.43.744-.744.998a2.06 2.06 0 0 1-1.035.457q-.565.075-1.265-.047l-1.735-.304.895-5.115q.14-.8.335-1.249t.548-.645q.338-.186.868-.171t1.421.172q.416.072.996.187.58.114 1.008.253.489.15.9.351t.584.476q.464.713.956 2.094.494 1.382.609 2.046l.868.152.646-5.583-15.812-2.767-.171.975q.329.084.885.258.558.175.777.317.417.279.518.612.1.333.018.809L-12.796-.344q-.08.45-.261.721-.182.271-.722.421-.336.096-.916.123-.58.028-.872.016l-.17.975L-.792 4.527z" style="fill:#fff;fill-opacity:1;fill-rule:nonzero;stroke:none" transform="translate(391.883 481.59)"/><path d="M0 0a22 22 0 0 1-.963-.155 2.46 2.46 0 0 1-1.125-.514q-.441-.35-.614-1.184-.174-.835-.148-2.447l.209-12.871-2.146-.035-10.886 13.752.137-8.454q.025-1.574.238-2.389.211-.816.664-1.189.33-.275 1.045-.479t1.139-.273l.015-.991-7.356-.119-.015.991q.469.045 1.076.201.606.156 1.012.467.464.377.627 1.121.162.746.134 2.498l-.138 8.529a3.8 3.8 0 0 1-.207 1.197 2.5 2.5 0 0 1-.6.962 3.2 3.2 0 0 1-.982.663 5.8 5.8 0 0 1-1.254.367l-.017 1.016 6.442.104 9.553-12.029-.111 6.813q-.026 1.624-.244 2.414-.217.79-.67 1.163-.354.286-1.045.484-.69.199-1.114.268l-.016.99L-.016.99z" style="fill:#fff;fill-opacity:1;fill-rule:nonzero;stroke:none" transform="translate(414.079 485.896)"/><path d="M0 0a9.6 9.6 0 0 0-3.385 1.164 8.2 8.2 0 0 0-2.547 2.271q-1 1.36-1.415 3.204t-.098 3.931q.315 2.073 1.269 3.735a9.3 9.3 0 0 0 2.391 2.768 8.5 8.5 0 0 0 3.22 1.522 9.6 9.6 0 0 0 3.755.143q1.407-.213 2.508-.753 1.102-.54 1.83-1.113l.846.578 1.037-.158-.881-6.518-1.049.16q-.441 3.116-1.478 4.703-1.04 1.585-2.838 1.86-2.238.339-3.722-1.563-1.482-1.904-2.054-5.663-.323-2.124-.152-3.687.17-1.563.674-2.578.546-1.06 1.419-1.65.872-.59 2.017-.763 1.667-.254 3.115.502 1.45.756 2.816 2.526l.926-.808a11 11 0 0 0-1.469-1.8A7.3 7.3 0 0 0 4.993.744 7.9 7.9 0 0 0 2.747-.02Q1.548-.236 0 0" style="fill:#fff;fill-opacity:1;fill-rule:nonzero;stroke:none" transform="translate(422.037 466.89)"/><path d="m0 0-.875.272q-.03 1.082-.537 2.338t-1.257 1.688q-.319.192-.93.402-.61.209-1.013.334l-2.373.737-2.059-6.632 1.682-.522a4 4 0 0 1 1.201-.2q.567-.004 1.133.312.35.198.84.816.49.62.731 1.116l.876-.272-2.229-7.178-.875.272q.09.531.046 1.389-.043.856-.207 1.227-.244.553-.712.879a4.2 4.2 0 0 1-1.146.535l-1.683.522-1.539-4.959q-.24-.776-.272-1.264-.032-.489.192-.825.217-.319.695-.548.48-.228 1.342-.496.404-.125.972-.288a9 9 0 0 1 1.014-.235q.502-.09.96-.099t.737.157q.737.423 1.807 1.426 1.069 1.005 1.476 1.543l.841-.261-1.975-5.263-15.331 4.759.293.946q.332-.076.906-.175.576-.1.836-.074.497.059.74.309.242.25.385.711l3.767 12.138q.136.436.098.76-.04.324-.452.705-.252.239-.757.528-.504.29-.769.411l.293.946 14.49-4.498z" style="fill:#fff;fill-opacity:1;fill-rule:nonzero;stroke:none" transform="translate(447.083 474.75)"/><path d="m0 0-7.98 4.678.501.854q.272-.131.797-.379.525-.25.764-.271.48-.062.784.121.303.183.547.6l3.14 5.355-6.306 3.696-3.068-5.236a1.7 1.7 0 0 1-.242-.756q-.022-.384.246-.762.146-.203.567-.583a7 7 0 0 1 .71-.577l-.501-.855-7.98 4.678.5.854q.267-.142.807-.376.54-.237.82-.283.457-.076.774.128.316.204.547.599l6.445 10.996q.224.384.249.723t-.267.774a4.7 4.7 0 0 1-.639.721q-.422.402-.627.551l.5.855 7.98-4.678-.5-.854a8 8 0 0 1-.835.342 8 8 0 0 1-.782.238q-.49.095-.803-.141a2 2 0 0 1-.518-.586l-2.722-4.644 6.306-3.696 2.657 4.535q.226.383.244.725t-.271.778q-.195.29-.579.669a7 7 0 0 1-.637.572l.501.855 7.98-4.678-.501-.854q-.345.172-.803.346-.457.173-.855.258-.479.09-.794-.138a1.9 1.9 0 0 1-.527-.589L-.822 3.558a1.7 1.7 0 0 1-.257-.747q-.026-.354.262-.771.185-.256.607-.622.422-.365.711-.564Z" style="fill:#fff;fill-opacity:1;fill-rule:nonzero;stroke:none" transform="translate(467.071 449.162)"/><path d="m0 0-7.489 5.832.608.781q.272-.18.803-.529.53-.35.784-.417.469-.124.788.021t.616.526l7.847 10.078q.265.34.344.697t-.157.798a5.4 5.4 0 0 1-.516.732q-.366.453-.658.745l.608.781 7.489-5.831-.608-.781q-.309.192-.78.47a5 5 0 0 1-.844.409q-.473.158-.811-.021a1.9 1.9 0 0 1-.611-.53L-.426 3.694a1.7 1.7 0 0 1-.35-.716q-.072-.355.166-.797.129-.246.524-.69.396-.445.694-.709Z" style="fill:#fff;fill-opacity:1;fill-rule:nonzero;stroke:none" transform="translate(473.18 443.815)"/><path d="M0 0a9 9 0 0 1-.533.404 5 5 0 0 1-.657.365q-.469.23-.848.069A2.1 2.1 0 0 1-2.712.38l-1.474-1.488A37 37 0 0 1-5.544-2.55q-1.393.306-3.542 1.487-2.15 1.18-3.556 2.572a10.1 10.1 0 0 0-2.057 2.876 8.05 8.05 0 0 0-.772 3.283q-.043 1.706.689 3.448.731 1.742 2.322 3.35 1.484 1.498 3.215 2.305t3.535.845q1.777.046 3.523-.699 1.748-.747 3.274-2.256a9.2 9.2 0 0 0 1.652-2.172q.615-1.144.886-2.019l1.022-.03.747-.738-4.549-4.75-.754.746q1.433 2.751 1.536 4.673.103 1.921-1.286 3.296-1.646 1.628-4.043.998-2.399-.631-5.034-3.295-2.798-2.826-3.5-5.294-.703-2.469.908-4.063.755-.747 1.578-1.089.825-.342 1.463-.348l2.571 2.598q.322.326.429.657.107.332-.067.824a3.8 3.8 0 0 1-.437.844q-.305.464-.526.753l.696.705L.697.704z" style="fill:#fff;fill-opacity:1;fill-rule:nonzero;stroke:none" transform="translate(490.99 436.742)"/><path d="m0 0-5.366 7.535.806.574.574-.672q.376-.442.586-.561.413-.252.764-.209.353.042.744.322l5.057 3.601-4.239 5.953-4.944-3.52a1.7 1.7 0 0 1-.529-.591q-.177-.342-.088-.796.05-.245.28-.764.228-.518.411-.818l-.807-.574-5.367 7.535.806.574q.186-.238.583-.674.395-.437.632-.593.386-.258.758-.2t.744.322l10.383 7.395q.361.257.523.557.16.3.073.815-.068.38-.288.92a8 8 0 0 1-.347.76l.807.574 5.366-7.534-.807-.575a7 7 0 0 1-.621.654 7 7 0 0 1-.617.537q-.407.288-.789.201a2 2 0 0 1-.713-.323L-.01 17.302l4.24-5.953 4.282 3.049q.362.258.518.562.159.306.071.821a4.5 4.5 0 0 1-.253.848 7 7 0 0 1-.347.782l.807.575 5.366-7.535-.807-.575q-.244.3-.592.645a6 6 0 0 1-.673.586q-.402.277-.782.199a1.9 1.9 0 0 1-.721-.322L.706 3.583a1.74 1.74 0 0 1-.539-.577q-.168-.312-.078-.811.064-.31.301-.815Q.625.874.807.575Z" style="fill:#fff;fill-opacity:1;fill-rule:nonzero;stroke:none" transform="translate(496.51 416.293)"/><path d="M0 0a10 10 0 0 0-.742 2.859q-.14 1.411.014 2.494l-1.139.427-.394.947 5.953 2.645.399-.958a17 17 0 0 1-1.467-1.576 9.6 9.6 0 0 1-1.222-1.867 6.5 6.5 0 0 1-.648-2.052Q.61 1.873 1.077.748q.63-1.513 1.746-1.998 1.115-.482 2.301.01.974.405 1.352 1.365.377.961.263 2.599-.072 1.067-.127 1.964a31 31 0 0 0-.059 1.707q.007 1.87.929 3.161.923 1.292 2.459 1.931.976.404 2.039.377a5.4 5.4 0 0 0 2.101-.498q.974-.457 1.874-1.428a7.8 7.8 0 0 0 1.459-2.319 8.3 8.3 0 0 0 .637-2.622q.09-1.307-.024-2.126l.986-.387.403-.969-5.637-2.448-.398.958q.777.714 1.548 1.564.77.849 1.196 1.614.455.83.563 1.711.11.88-.289 1.838-.5 1.204-1.533 1.668a2.53 2.53 0 0 1-2.09.026q-.999-.415-1.357-1.341t-.256-2.53q.048-.945.111-1.925.064-.98.072-1.76.014-1.888-.793-3.21-.806-1.321-2.52-2.034a5.2 5.2 0 0 0-2.289-.39 5.2 5.2 0 0 0-2.216.595 7 7 0 0 0-1.995 1.586Q.648-1.56 0 0" style="fill:#fff;fill-opacity:1;fill-rule:nonzero;stroke:none" transform="translate(501.344 404.16)"/><path d="M0 0a9.6 9.6 0 0 0-.272 3.569A8.2 8.2 0 0 0 .804 6.807q.852 1.457 2.382 2.569 1.528 1.111 3.569 1.647 2.028.533 3.933.314a9.3 9.3 0 0 0 3.488-1.098 8.5 8.5 0 0 0 2.674-2.354 9.7 9.7 0 0 0 1.619-3.39q.36-1.378.302-2.602-.06-1.225-.297-2.122l.865-.547.266-1.015-6.334-1.773-.268 1.026Q15.69-.898 16.735.683q1.045 1.583.584 3.341-.575 2.19-2.91 2.799-2.334.607-6.013-.357-2.078-.545-3.446-1.32-1.367-.776-2.099-1.641-.758-.921-.954-1.956a4.9 4.9 0 0 1 .099-2.154q.428-1.632 1.695-2.663 1.269-1.03 3.435-1.584l-.376-1.17q-1.212.217-2.233.636-1.022.417-1.857 1.096a7.9 7.9 0 0 0-1.59 1.759Q.398-1.517 0 0" style="fill:#fff;fill-opacity:1;fill-rule:nonzero;stroke:none" transform="translate(506.121 389.784)"/><path d="m0 0-.825 9.213.986.089q.051-.299.154-.87.103-.572.223-.78.23-.427.555-.568.324-.14.804-.097l6.184.555-.652 7.279-6.044-.542a1.7 1.7 0 0 1-.756-.243q-.326-.205-.478-.642-.08-.237-.145-.8a7 7 0 0 1-.059-.914l-.986-.088-.825 9.214.986.088q.04-.3.161-.876t.247-.831q.203-.418.553-.556a1.74 1.74 0 0 1 .806-.097l12.695 1.137q.443.04.732.217.29.178.476.666.133.364.216.94t.084.831l.986.088.826-9.213-.986-.089a7 7 0 0 1-.206.878 8 8 0 0 1-.261.776q-.207.454-.58.571a2 2 0 0 1-.778.082l-5.362-.48.653-7.28 5.234.469q.442.04.733.223.289.184.474.672.125.326.21.861.086.534.096.85l.986.088.826-9.213-.986-.088q-.06.382-.186.855a6 6 0 0 1-.286.846q-.205.442-.573.566a1.9 1.9 0 0 1-.785.087L2.419 2.735a1.7 1.7 0 0 1-.757-.225q-.302-.184-.476-.66-.102-.3-.153-.855A9 9 0 0 1 .986.088Z" style="fill:#fff;fill-opacity:1;fill-rule:nonzero;stroke:none" transform="translate(510.273 363.319)"/><path d="M0 0q1.105-.642 2.542-1.009t3.272-.527a21.6 21.6 0 0 1 3.052-.055q1.494.082 2.691.486 1.198.416 1.968 1.209.771.792.883 2.065.19 2.175-1.885 3.494-2.073 1.318-6.038 1.665-1.685.146-3.201.03T.607 6.811q-1.174-.442-1.874-1.216-.698-.775-.804-1.989-.105-1.189.455-2.097Q-1.058.6 0 0m12.577-4.208q-1.325-1.157-3.108-1.745-1.786-.59-3.986-.397a11.2 11.2 0 0 0-3.676.95q-1.716.78-2.891 2.068A8.9 8.9 0 0 0-2.898-.244q-.594 1.735-.393 4.042a9.7 9.7 0 0 0 .952 3.464 8.7 8.7 0 0 0 2.126 2.756q1.31 1.145 3.095 1.728 1.784.582 3.896.399 2.201-.192 3.928-1.063t2.896-2.232a8.5 8.5 0 0 0 1.671-3.106q.529-1.76.362-3.682a9.8 9.8 0 0 0-.971-3.529 8.8 8.8 0 0 0-2.087-2.741" style="fill:#fff;fill-opacity:1;fill-rule:nonzero;stroke:none" transform="translate(512.168 351.41)"/><path d="M0 0q.982-.817 2.336-1.42 1.353-.602 3.138-1.068a22 22 0 0 1 3-.565q1.486-.17 2.733.028 1.251.21 2.144.861.893.652 1.215 1.89.552 2.112-1.271 3.759-1.824 1.648-5.675 2.653a19.6 19.6 0 0 1-3.15.567q-1.515.14-2.731-.091-1.232-.24-2.051-.886t-1.126-1.825q-.302-1.155.096-2.144Q-.943.77 0 0m11.693-6.255q-1.499-.918-3.356-1.2-1.858-.281-3.996.277A11.1 11.1 0 0 0 .876-5.625Q-.685-4.57-1.628-3.103A8.85 8.85 0 0 0-2.898.246q-.296 1.809.289 4.05A9.7 9.7 0 0 0-1.09 7.552a8.7 8.7 0 0 0 2.558 2.361q1.483.909 3.34 1.185t3.908-.26q2.137-.558 3.694-1.706t2.481-2.686a8.5 8.5 0 0 0 1.129-3.342 9.8 9.8 0 0 0-.262-3.689 9.7 9.7 0 0 0-1.548-3.317 8.8 8.8 0 0 0-2.517-2.353" style="fill:#fff;fill-opacity:1;fill-rule:nonzero;stroke:none" transform="translate(508.534 333.733)"/><path d="m0 0-5.165 2.606L1.103 17.07l.909-.394a18 18 0 0 1-.283-.955q-.15-.553-.152-.749-.01-.47.214-.751.224-.28.679-.477L14.13 8.69q.419-.181.746-.178.326.003.749.372.312.272.619.71.308.44.48.706l.908-.393-3.736-8.621-.909.394q.119.37.264.878.144.51.181.914.036.497-.222.78a1.9 1.9 0 0 1-.666.459L1.676 9.421q-.77.334-1.255.426t-.819-.105q-.348-.192-.634-.679-.287-.486-.68-1.394A14 14 0 0 1-2.348 5.9q-.25-.883-.036-1.41.35-.822 1.17-1.881A19 19 0 0 1 .351.808Z" style="fill:#fff;fill-opacity:1;fill-rule:nonzero;stroke:none" transform="translate(503.129 312.724)"/><path d="M0 0c-.63-1.141-.849-1.828-.849-1.828Q-.431-.912 0 0" style="fill:#00a1e9;fill-opacity:1;fill-rule:nonzero;stroke:none" transform="translate(342.849 392.775)"/><path d="M0 0q.431-.912.849-1.828S.631-1.141 0 0M0 0c-10.03 21.267-25.151 40.172-25.151 40.172-18.109 4.418-31.473 4.515-37.083 4.28-5.61.235-18.975.138-37.083-4.28 0 0-15.122-18.905-25.152-40.172 3.083 5.579 16.081 22.064 62.235 22.733C-16.081 22.064-3.083 5.579 0 0" style="fill:#00a1e9;fill-opacity:1;fill-rule:nonzero;stroke:none" transform="translate(467.317 392.775)"/><path d="M0 0s15.622-26.304 18.372-43.304c0 0-4.625-24-28.125-45.75 0 0-24.75-6.25-53.625-4.875 0 0 23-.75 49.125 32 0 0 20.75 26.75 14.253 61.929" style="fill:#181c62;fill-opacity:1;fill-rule:nonzero;stroke:none" transform="translate(460.003 406.584)"/><path d="M0 0s3-20.833 28.5-46.667c0 0 12.297-5.938 54.919-4.885 0 0-30.877 2.802-52.668 35.237 0 0-17.584 24.065-12.422 58.619C18.329 42.304 6.458 22.5 0 0" style="fill:#008735;fill-opacity:1;fill-rule:nonzero;stroke:none" transform="translate(331.834 364.28)"/><path d="M0 0a6.667 6.667 0 1 0-13.334 0A6.667 6.667 0 0 0 0 0" style="fill:#f0830c;fill-opacity:1;fill-rule:nonzero;stroke:none" transform="translate(404.163 391.86)"/><path d="M0 0s-11.878 1.448-12.711 21.865c0 0-.083 10.833 7.584 19.5 0 0 8 9.583 19.5 8.083 0 0 11.143-1.256 13.654-9.586l-.003-.013a11.77 11.77 0 0 0-2.271-11.36l-.002-.008-.044-.042a12 12 0 0 0-1.85-1.713c-5.147-4.558-10.044-7.443-9.042-13.455l-.012-.012c.095-.608.16-1.226.16-1.86C14.963 4.875 9.674-.414 3.15-.414c0 0-2.256.117-3.15.414" style="fill:#008735;fill-opacity:1;fill-rule:nonzero;stroke:none" transform="translate(417.794 351.999)"/><path d="M0 0s12.315 5.043 7.209 27.188c0 0-3.094 11.645-13.865 18.688 0 0-11.397 7.929-23.291 2.94 0 0-11.584-4.621-11.83-14.295l.007-.013a13.08 13.08 0 0 1 5.775-11.517l.004-.009.059-.031a13.3 13.3 0 0 1 2.488-1.295c6.861-3.376 12.96-5.031 13.653-11.775l.017-.009c.076-.68.188-1.362.375-2.042C-17.482.832-10.255-3.286-3.258-1.369c0 0 2.387.788 3.258 1.369" style="fill:#f0830c;fill-opacity:1;fill-rule:nonzero;stroke:none" transform="translate(407.498 333.413)"/><path d="M0 0c0 .669-.14 1.283-.642 1.283-.278 0-.641-.028-1.254-.195L-3.263.697c-.14-.028-.251-.028-.307.084l-.195.557c-.056.112-.028.224.167.335l6.777 3.319c.196.084.335.167.53.167.167 0 .251-.195.251-.418S3.876.14 3.876-3.458V-4.63c0-1.449.028-6.246.028-6.554.028-1.45.139-1.645 1.534-1.645h1.004c.195 0 .279-.082.279-.222v-.725c0-.14-.084-.197-.307-.197-.195 0-3.988.085-4.462.085-.808 0-4.741-.085-4.881-.085-.167 0-.222.057-.222.197v.753c0 .166.167.194.39.194h.725c1.534 0 1.953.084 2.008 1.506C.027-10.151 0-7.084 0-6.079Z" style="fill:#181c62;fill-opacity:1;fill-rule:nonzero;stroke:none" transform="translate(380.965 295.58)"/><path d="M0 0c0-2.762 1.144-4.797 2.649-4.797.642 0 1.2.194 1.562.558.447.502.419 2.23.419 3.513 0 2.594-.419 4.881-2.148 4.881C.837 4.155 0 2.565 0 0m7.083 3.123C8.367 1.394 8.645-.391 8.645-1.256c0-3.765-1.534-7.947-4.518-10.458-1.589-1.338-2.789-1.953-4.461-2.426a3.7 3.7 0 0 0-.865-.139c-.223 0-.447.083-.447.419 0 .193.167.389.363.472 2.343.894 4.964 3.906 5.55 7.783h-.195c-.419-.336-1.395-.81-3.068-.81-3.318 0-4.629 2.928-4.629 4.964s.948 4.211 2.008 5.104C-.418 4.685.809 5.187 2.398 5.187c2.288 0 3.57-.586 4.685-2.064" style="fill:#181c62;fill-opacity:1;fill-rule:nonzero;stroke:none" transform="translate(393.908 295.553)"/><path d="M0 0c0-2.762 1.144-4.797 2.649-4.797.642 0 1.2.194 1.562.558.447.502.419 2.23.419 3.513 0 2.594-.419 4.881-2.148 4.881C.837 4.155 0 2.565 0 0m7.084 3.123C8.367 1.394 8.646-.391 8.646-1.256c0-3.765-1.534-7.947-4.519-10.458-1.589-1.338-2.788-1.953-4.461-2.426a3.7 3.7 0 0 0-.865-.139c-.223 0-.447.083-.447.419 0 .193.168.389.364.472 2.343.894 4.964 3.906 5.549 7.783h-.195c-.418-.336-1.395-.81-3.068-.81-3.318 0-4.629 2.928-4.629 4.964s.948 4.211 2.008 5.104C-.418 4.685.809 5.187 2.398 5.187c2.288 0 3.57-.586 4.686-2.064" style="fill:#181c62;fill-opacity:1;fill-rule:nonzero;stroke:none" transform="translate(407.856 295.553)"/><path d="M0 0c0 .727.53 1.423 1.171 1.451C2.287 1.451 2.761.53 3.012 0c.167-.362.557-.976 1.813-.976 1.98 0 3.235 1.841 3.235 3.849C8.06 5.384 6.805 7 4.127 7.614c-.558.139-.641.251-.641.531 0 .333.083.445.474.529 2.175.419 3.542 1.617 3.542 3.764 0 1.283-.808 2.706-2.538 2.706-1.562 0-2.565-1.171-3.151-2.622-.14-.334-.251-.362-.335-.334l-.558.166c-.139.029-.167.168-.111.419.391 1.925 2.064 4.518 5.577 4.518 3.375 0 4.797-2.147 4.881-3.821 0-2.202-1.702-3.68-3.57-4.685v-.056c2.204-.362 4.518-2.287 4.518-4.741 0-3.261-3.207-6.163-7.864-6.163C.92-2.175 0-.779 0 0" style="fill:#181c62;fill-opacity:1;fill-rule:nonzero;stroke:none" transform="translate(417.955 283.448)"/><path d="M0 0a3.25 3.25 0 1 0-6.5 0A3.25 3.25 0 0 0 0 0" style="fill:#fff;fill-opacity:1;fill-rule:nonzero;stroke:none" transform="translate(312.167 300.03)"/><path d="M0 0a3.25 3.25 0 1 0-6.5 0A3.25 3.25 0 0 0 0 0" style="fill:#fff;fill-opacity:1;fill-rule:nonzero;stroke:none" transform="translate(505.129 300.03)"/><path d="m0 0-2.267-1.349a15.7 15.7 0 0 0-2.687 4.252q-1.096 2.518-.904 4.273-1.647-.333-4.136.691-2.369.974-4.553 2.793l1.297 2.297q4.53-3.371 7.055-2.487l-4.313 4.218 1.782 1.822 4.677-4.573 1.482 1.515 2.788-2.727-1.482-1.516 4.677-4.573-1.782-1.823-4.296 4.202Q-3.472 4.453 0 0m-13.118-4.856q.741.758.603 1.864t-1.247 2.189Q-14.888.3-15.988.403q-1.1.106-1.841-.652-.758-.776-.629-1.873.13-1.098 1.255-2.198 1.11-1.084 2.218-1.199 1.108-.112 1.867.663m10.13-.764L-9.518.766-10.7-.443q1.537-1.997 1.564-3.806t-1.332-3.198q-1.623-1.66-3.84-1.364-2.216.298-4.659 2.686-2.442 2.39-2.805 4.65-.33 2.158 1.293 3.818 1.358 1.389 3.167 1.402 1.809.014 3.84-1.478l1.182 1.209-6.529 6.385 1.782 1.823L-1.206-3.798z" style="fill:#fff;fill-opacity:1;fill-rule:nonzero;stroke:none" transform="translate(333.709 278.354)"/><path d="m0 0-3.194 1.974L-6.205-2.9-9.523-.851l1.724 2.791q-1.212-.348-3.428.398-2.12.716-5.48 2.791-1.32.815-2.16 1.482-1 .825-1.055 1.75-.026.788.664 1.904l4.35 7.042 3.318-2.05-3.979-6.441q-.398-.644.106-1.074.696-.579 1.995-1.381 2.39-1.477 3.856-2.054 1.361-.516 1.953-.526 1 .006 1.65 1.058l3.342 5.41 3.318-2.05-2.453-3.971 3.195-1.974zm-13.833-7.828 2.068 3.349q.265.43-.126.671l-5.936 3.667-1.976-3.199q-.358-.58.24-.949zm6.337 2.699-4.618-6.876-11.027 6.812q-.927.572-1.07 1.239t.453 1.634l4.005 6.483L-7.84-3.195q1.175-.727.344-1.934" style="fill:#fff;fill-opacity:1;fill-rule:nonzero;stroke:none" transform="translate(356.384 263.043)"/><path d="m0 0-3.921-9.486-3.139 1.077 2.801 8.164q.295.858-.415 1.102l-7.196 2.469.86 2.507 9.991-3.429Q.745 1.799 0 0m6.376-10.752L3.1-9.627l-4.21-12.269-3.69 1.266 2.064 6.015q-1.51-.816-5.136.108-1.11.275-5.028 1.619l-5.477 1.879.86 2.507 3.552-1.219 2.613 7.615 3.414-1.172-2.613-7.615q3.735-1.281 5.413-1.617 2.919-.602 3.606 1.404L2.859 1.687 6.548.422 3.951-7.145 7.228-8.27Z" style="fill:#fff;fill-opacity:1;fill-rule:nonzero;stroke:none" transform="translate(372.283 262.54)"/><path d="m0 0-3.733.402-.566-5.243-3.878.418 1.478 13.699 3.878-.419-.628-5.82 3.733-.403zm-13.782 2.122q.128 1.178-.422 1.962-.549.781-1.56.892-1.036.111-1.727-.538t-.819-1.828q-.127-1.178.41-1.961.537-.78 1.572-.892 1.012-.11 1.716.538.702.647.83 1.827m9.265-9.884-1.149-6.805-3.541.381.564 5.219q.087.803-.636.881l-10.959 1.184.284 2.633 14.066-1.517q1.686-.183 1.371-1.976M-8.8 4.706l-1.927.208q.702-1.396.51-3.177-.268-2.484-1.99-3.758-1.72-1.273-4.418-.982t-4.12 1.904-1.154 4.097q.192 1.782 1.2 2.992l-2.071.224.284 2.635 5.107-.552.314 2.91 3.877-.418-.313-2.91 4.985-.538z" style="fill:#fff;fill-opacity:1;fill-rule:nonzero;stroke:none" transform="translate(404.372 250.941)"/><path d="m0 0 .363-10.649-3.467-.389-1.008 9.004q-.101.902-.847.819l-11.364-1.272-.295 2.633 14.614 1.636Q-.054 2 0 0m4.436-16.11-22.006-2.463-.294 2.633 6.933.776-.864 7.725 3.876.433.865-7.724 11.195 1.252z" style="fill:#fff;fill-opacity:1;fill-rule:nonzero;stroke:none" transform="translate(425.173 259.155)"/><path d="M0 0q-.397 1.145-1.476 1.518t-2.452-.104-1.987-1.438q-.615-.962-.218-2.107.399-1.144 1.481-1.529t2.456.092q1.373.477 1.983 1.451Q.398-1.145 0 0m3.524 1.225q.804-2.312-.43-4.224Q1.86-4.91-1.344-6.023-4.547-7.138-6.7-6.401q-2.154.734-2.956 3.047-.796 2.287.433 4.21t4.434 3.038q3.204 1.113 5.361.366 2.158-.747 2.952-3.035m1.847 7.16-20.916-7.267-.853 2.455L4.518 10.84Zm-4.099 3.011-13.386-4.652q-1.1-.381-1.722-.063-.623.318-.972 1.318l-2.211 6.365 15.332 5.327.862-2.479-11.648-4.047.945-2.718q.222-.643.864-.421L.411 13.875z" style="fill:#fff;fill-opacity:1;fill-rule:nonzero;stroke:none" transform="translate(448.357 248.666)"/><path d="m0 0-3.187-1.985 2.79-4.477-3.31-2.062-7.288 11.693 3.31 2.062L-4.588.263l3.187 1.986zm1.233-8.895 3.294-6.065-3.022-1.883-2.776 4.454q-.427.686-1.044.302l-9.355-5.83-1.401 2.248 12.007 7.483q1.44.897 2.297-.709m-13.388 2.063q-.628 1.007-1.543 1.284t-1.779-.261q-.883-.55-1.028-1.488-.143-.937.484-1.943.627-1.008 1.532-1.29.904-.285 1.789.266.863.54 1.017 1.482.155.944-.472 1.95m2.326 5.107-1.645-1.024q1.414-.666 2.362-2.187 1.321-2.12.752-4.184-.57-2.064-2.872-3.499t-4.417-1.043q-2.114.393-3.436 2.513-.947 1.52-.901 3.095l-1.768-1.102-1.401 2.249 4.358 2.717-1.548 2.484 3.31 2.062 1.549-2.484L-11.23.524z" style="fill:#fff;fill-opacity:1;fill-rule:nonzero;stroke:none" transform="translate(474.404 274.861)"/><path d="m0 0-15.773-15.54-1.86 1.888 3.055 3.008-5.526 5.61 2.52 2.481 5.525-5.608 1.398 1.377-5.526 5.609 2.52 2.483 5.525-5.61 6.283 6.19zm-13.464 9.938 6.991-8.097-2.485-2.448-6.394 6.489q-.637.647-1.172.12l-8.439-8.314-1.859 1.888 10.681 10.525q1.382 1.36 2.677-.163" style="fill:#fff;fill-opacity:1;fill-rule:nonzero;stroke:none" transform="translate(499.135 284.24)"/></g></svg>